HIERARCHY
ROOT Hips
{
	OFFSET -0.001795 -0.223333 0.028219
	CHANNELS 6 Xposition Yposition Zposition Zrotation Yrotation Xrotation 
	JOINT LeftUpLeg
	{
		OFFSET 0.069520 -0.091406 -0.006815
		CHANNELS 3 Zrotation Yrotation Xrotation
		JOINT LeftLeg
		{
			OFFSET 0.034277 -0.375199 -0.004496
			CHANNELS 3 Zrotation Yrotation Xrotation
			JOINT LeftFoot
			{
				OFFSET -0.013596 -0.397961 -0.043693
				CHANNELS 3 Zrotation Yrotation Xrotation
				JOINT LeftToe
				{
					OFFSET 0.026358 -0.055791 0.119288
					CHANNELS 3 Zrotation Yrotation Xrotation
					End Site
					{
						OFFSET 0.000000 0.000000 0.000000
					}
				}
			}
		}
	}
	JOINT RightUpLeg
	{
		OFFSET -0.067670 -0.090522 -0.004320
		CHANNELS 3 Zrotation Yrotation Xrotation
		JOINT RightLeg
		{
			OFFSET -0.038290 -0.382569 -0.008850
			CHANNELS 3 Zrotation Yrotation Xrotation
			JOINT RightFoot
			{
				OFFSET 0.015774 -0.398415 -0.042312
				CHANNELS 3 Zrotation Yrotation Xrotation
				JOINT RightToe
				{
					OFFSET -0.025372 -0.048144 0.123348
					CHANNELS 3 Zrotation Yrotation Xrotation
					End Site
					{
						OFFSET 0.000000 0.000000 0.000000
					}
				}
			}
		}
	}
	JOINT Spine
	{
		OFFSET -0.002533 0.108963 -0.026696
		CHANNELS 3 Zrotation Yrotation Xrotation
		JOINT Spine1
		{
			OFFSET 0.005487 0.135180 0.001092
			CHANNELS 3 Zrotation Yrotation Xrotation
			JOINT Spine2
			{
				OFFSET 0.001457 0.052922 0.025425
				CHANNELS 3 Zrotation Yrotation Xrotation
				JOINT Neck
				{
					OFFSET -0.002778 0.213870 -0.042857
					CHANNELS 3 Zrotation Yrotation Xrotation
					JOINT Head
					{
						OFFSET 0.005152 0.064970 0.051349
						CHANNELS 3 Zrotation Yrotation Xrotation
						End Site
						{
							OFFSET 0.000000 0.000000 0.000000
						}
					}
				}
				JOINT LeftShoulder
				{
					OFFSET 0.078845 0.121749 -0.034090
					CHANNELS 3 Zrotation Yrotation Xrotation
					JOINT LeftArm
					{
						OFFSET 0.090977 0.030469 -0.008868
						CHANNELS 3 Zrotation Yrotation Xrotation
						JOINT LeftForeArm
						{
							OFFSET 0.259612 -0.012772 -0.027456
							CHANNELS 3 Zrotation Yrotation Xrotation
							JOINT LeftHand
							{
								OFFSET 0.249234 0.008986 -0.001171
								CHANNELS 3 Zrotation Yrotation Xrotation
								End Site
								{
									OFFSET 0.000000 0.000000 0.000000
								}
							}
						}
					}
				}
				JOINT RightShoulder
				{
					OFFSET -0.081759 0.118833 -0.038615
					CHANNELS 3 Zrotation Yrotation Xrotation
					JOINT RightArm
					{
						OFFSET -0.096012 0.032551 -0.009143
						CHANNELS 3 Zrotation Yrotation Xrotation
						JOINT RightForeArm
						{
							OFFSET -0.253742 -0.013329 -0.021401
							CHANNELS 3 Zrotation Yrotation Xrotation
							JOINT RightHand
							{
								OFFSET -0.255298 0.007772 -0.005559
								CHANNELS 3 Zrotation Yrotation Xrotation
								End Site
								{
									OFFSET 0.000000 0.000000 0.000000
								}
							}
						}
					}
				}
			}
		}
	}
}
MOTION
Frames: 14
Frame Time: 0.050000
-0.059364 0.563773 -0.114297 -5.894550 -6.677771 27.696158 5.378569 6.469903 60.314938 5.402388 7.020905 -67.146724 -29.428632 10.120907 97.358187 0.000000 0.000000 0.000000 -23.183523 10.198977 50.132893 12.005990 3.818262 -69.182420 13.258700 -14.607165 107.174847 0.000000 0.000000 0.000000 -3.870981 2.447000 -40.124328 13.270073 13.025478 -109.677307 -7.233656 10.183637 134.168865 -7.477478 3.988011 -116.732295 0.000000 0.000000 0.000000 -10.389445 18.471432 -9.540554 -51.193269 -4.844499 -40.308530 110.780157 2.573539 48.313075 0.000000 0.000000 0.000000 28.792173 -8.378590 5.096197 54.907600 36.795117 -29.585360 -46.471724 -56.227299 62.810510 0.000000 0.000000 0.000000 
-0.057495 0.554654 -0.113784 -6.318823 -6.574340 27.864543 5.760508 6.206564 60.284863 4.341124 6.198081 -65.019905 -30.863936 8.871311 95.279071 0.000000 0.000000 0.000000 -23.199693 10.145726 49.797129 11.862500 3.660605 -67.986012 14.838955 -13.890223 105.781924 0.000000 0.000000 0.000000 -2.368936 3.117351 -43.391409 14.230131 13.071821 -108.858485 -6.206668 11.670627 136.972961 -12.081028 3.601412 -116.099813 0.000000 0.000000 0.000000 -11.173263 18.104826 -9.732723 -50.754497 -7.682072 -43.243794 100.533033 1.132394 45.204917 0.000000 0.000000 0.000000 29.407429 -8.781992 5.996897 53.056334 37.554423 -33.474461 -44.979230 -51.259301 59.338404 0.000000 0.000000 0.000000 
-0.055741 0.546560 -0.113605 -6.014019 -5.778253 27.043951 7.248634 4.934700 60.870367 2.031084 4.795349 -63.888981 -27.105216 10.559010 96.585683 0.000000 0.000000 0.000000 -22.965196 9.681571 50.177309 11.139777 3.042334 -66.277334 15.331741 -13.783301 105.851143 0.000000 0.000000 0.000000 -2.254621 2.930770 -43.617298 14.429361 13.395337 -111.913045 -5.681323 12.870768 141.348751 -9.221326 3.225724 -115.329437 0.000000 0.000000 0.000000 -11.402594 17.102893 -9.743046 -50.667833 -7.456251 -47.113423 89.953050 0.338398 42.155612 0.000000 0.000000 0.000000 29.138372 -8.898214 6.048069 52.433850 37.582530 -36.457095 -43.518321 -47.774870 56.340415 0.000000 0.000000 0.000000 
-0.054384 0.540452 -0.114197 -5.598116 -5.228267 26.930615 8.229700 4.056588 61.065652 -0.874183 3.282554 -63.392341 -24.488372 11.763273 97.905259 0.000000 0.000000 0.000000 -22.157451 9.172957 51.553599 8.917921 1.843259 -67.296863 18.126646 -13.000046 105.282622 0.000000 0.000000 0.000000 -2.136270 2.913130 -44.909048 12.800566 12.666462 -115.514735 -4.477396 11.687763 145.982371 -11.909129 2.851029 -115.153042 0.000000 0.000000 0.000000 -11.147135 17.122316 -10.973956 -51.991744 -5.059111 -52.581674 83.650041 -4.175844 38.281884 0.000000 0.000000 0.000000 28.347293 -9.203374 5.096678 53.430884 36.219846 -40.343285 -45.459709 -43.688101 57.051468 0.000000 0.000000 0.000000 
-0.053063 0.535750 -0.115628 -5.041546 -3.865839 26.400719 9.772216 2.389761 60.921810 -3.817264 1.688923 -62.906624 -21.372366 13.364146 100.605120 0.000000 0.000000 0.000000 -20.973931 8.029960 53.064816 6.296885 0.257856 -67.133488 24.360911 -10.714314 103.039453 0.000000 0.000000 0.000000 -3.028347 2.333245 -45.995030 10.470247 11.277489 -121.735090 -3.314672 9.045438 152.855689 -11.874890 2.651824 -113.988516 0.000000 0.000000 0.000000 -9.071020 16.186000 -13.695359 -55.425235 -0.909561 -60.074154 83.013431 -11.162604 35.081116 0.000000 0.000000 0.000000 26.513772 -10.459007 2.307207 56.543708 34.019842 -46.097667 -50.369484 -37.585587 61.768055 0.000000 0.000000 0.000000 
-0.051689 0.533423 -0.117745 -4.704973 -3.136881 25.839286 11.053278 1.189790 60.767145 -7.155037 0.040651 -62.739448 -16.568966 15.381359 104.310132 0.000000 0.000000 0.000000 -20.254698 7.389962 54.416345 4.342499 -0.874607 -67.770508 27.774362 -9.110145 101.271097 0.000000 0.000000 0.000000 -3.268766 2.024648 -45.903962 9.074315 10.518025 -125.180289 -2.198583 7.796784 155.762258 -13.956071 2.244211 -114.131349 0.000000 0.000000 0.000000 -9.659164 16.534140 -14.168030 -57.616853 0.485451 -64.139385 86.229071 -12.641979 39.431657 0.000000 0.000000 0.000000 25.829329 -10.247327 1.388372 56.837253 33.516984 -46.621644 -51.994542 -37.710168 63.179253 0.000000 0.000000 0.000000 
-0.050567 0.533641 -0.119469 -4.066690 -1.672615 25.951073 12.033578 -0.158574 60.563135 -9.095034 -1.117844 -64.580515 -12.901036 16.504589 106.961015 0.000000 0.000000 0.000000 -19.153122 6.198480 56.289695 2.845535 -2.001504 -70.293414 27.436655 -8.566135 99.406127 0.000000 0.000000 0.000000 -5.250942 1.002266 -46.190813 9.799312 10.288025 -125.999076 -2.602472 7.873135 155.521651 -17.027288 2.518594 -114.732589 0.000000 0.000000 0.000000 -9.830301 16.962035 -13.955162 -58.745411 2.011737 -64.342424 91.372374 -8.635093 45.582853 0.000000 0.000000 0.000000 25.286738 -10.787294 0.945857 57.286195 33.023278 -46.402938 -54.242440 -39.216651 66.952817 0.000000 0.000000 0.000000 
-0.050178 0.531462 -0.120180 -3.767217 -1.310351 26.083923 12.541002 -0.670590 60.830482 -10.120461 -1.725952 -66.017246 -11.364341 16.872989 107.804768 0.000000 0.000000 0.000000 -18.719284 5.796598 56.989673 1.647834 -2.795062 -71.341585 26.931414 -8.194942 97.873286 0.000000 0.000000 0.000000 -5.700036 0.745898 -45.615790 9.017327 9.727084 -127.642375 -1.730725 6.822304 155.695532 -18.259072 2.376875 -114.298394 0.000000 0.000000 0.000000 -8.729765 18.570058 -15.214049 -60.286960 5.119658 -65.954841 95.081301 -8.901685 49.121654 0.000000 0.000000 0.000000 25.050358 -11.297017 0.461395 58.040898 33.018916 -45.035542 -55.494866 -40.593776 69.424620 0.000000 0.000000 0.000000 
-0.050892 0.531255 -0.119980 -3.711067 -0.781517 25.793287 12.649872 -0.994890 61.060456 -9.916205 -1.774096 -67.268201 -9.564782 17.425462 109.501746 0.000000 0.000000 0.000000 -18.263860 5.306055 57.820096 1.468780 -2.990311 -72.074030 24.915081 -8.755291 97.453875 0.000000 0.000000 0.000000 -6.801131 0.256546 -45.562441 9.954288 10.235622 -128.363700 -2.200173 7.626304 155.988099 -13.275099 2.334216 -115.184952 0.000000 0.000000 0.000000 -8.190616 19.314612 -16.004578 -60.372255 7.722505 -67.361547 97.928615 -8.522818 49.358953 0.000000 0.000000 0.000000 24.943833 -12.008195 0.029035 58.351657 32.838541 -45.363008 -56.906283 -39.984967 71.186301 0.000000 0.000000 0.000000 
-0.052617 0.529451 -0.119287 -3.505572 -0.487449 25.399435 13.208421 -1.516978 61.250632 -10.097192 -1.939621 -67.899406 -7.412280 17.945142 111.005720 0.000000 0.000000 0.000000 -18.023520 5.015240 58.269690 1.485575 -3.010263 -71.891047 21.589088 -9.791940 96.952696 0.000000 0.000000 0.000000 -7.718190 -0.099873 -44.705255 8.459722 9.092801 -130.387800 -2.132618 5.582263 156.444161 -14.597239 2.599908 -115.374135 0.000000 0.000000 0.000000 -6.267586 19.920409 -17.745137 -60.387394 11.741467 -68.185427 98.480784 -8.659006 46.146485 0.000000 0.000000 0.000000 24.832850 -12.833636 -0.511013 58.876043 32.420870 -45.731165 -58.369749 -38.450711 72.346600 0.000000 0.000000 0.000000 
-0.054451 0.528827 -0.118391 -3.570500 -0.223149 25.184572 13.388790 -1.760360 61.446445 -9.555510 -1.708418 -68.097736 -4.978998 18.333624 111.551538 0.000000 0.000000 0.000000 -17.788327 4.756211 58.629104 2.172994 -2.619337 -71.733470 18.387387 -10.832322 96.669379 0.000000 0.000000 0.000000 -8.490837 -0.416157 -44.957472 8.671491 9.019556 -130.155639 -2.571348 5.317739 156.109312 -12.672927 2.876366 -115.266050 0.000000 0.000000 0.000000 -4.595485 19.484622 -18.518318 -59.802322 13.182060 -67.733072 100.884531 -6.953572 43.134448 0.000000 0.000000 0.000000 24.921011 -13.005872 -0.550507 59.254223 33.057213 -45.742765 -60.299201 -37.437398 74.731578 0.000000 0.000000 0.000000 
-0.055690 0.528346 -0.117646 -3.746603 0.140818 25.096532 12.888499 -1.617311 61.648319 -7.569189 -0.759391 -68.342322 -6.194994 18.137634 111.319264 0.000000 0.000000 0.000000 -17.532227 4.412724 58.698980 2.431592 -2.490890 -70.998237 18.702640 -10.264771 94.973810 0.000000 0.000000 0.000000 -9.088610 -0.640371 -43.728504 10.884608 10.736185 -130.936381 -2.685535 8.242344 155.235302 -1.743185 2.496168 -115.021890 0.000000 0.000000 0.000000 -2.641325 20.257967 -18.755872 -58.988929 13.973211 -65.959659 103.441764 -4.287692 44.913321 0.000000 0.000000 0.000000 25.792152 -13.478073 -0.086575 59.207309 33.851922 -43.327843 -61.190841 -38.190179 75.745261 0.000000 0.000000 0.000000 
-0.056181 0.527896 -0.117622 -4.308345 -0.443536 25.436626 12.306798 -0.920301 62.087853 -5.814070 0.261768 -69.326001 -7.473101 18.197550 112.329207 0.000000 0.000000 0.000000 -18.005912 4.994533 58.211662 4.190470 -1.438595 -71.464532 13.911646 -12.158703 95.719526 0.000000 0.000000 0.000000 -9.172648 -0.474964 -43.740096 14.365620 14.238367 -132.242051 -2.906986 13.054968 155.797538 6.328766 1.821293 -113.486551 0.000000 0.000000 0.000000 0.267313 20.372814 -19.287553 -58.302701 15.756755 -66.855994 105.512699 -4.688975 40.911381 0.000000 0.000000 0.000000 25.244223 -13.348655 -0.165533 59.610990 34.278375 -41.567748 -62.202222 -39.553450 76.790561 0.000000 0.000000 0.000000 
-0.056363 0.527749 -0.118445 -4.575191 -0.609922 25.656148 11.138084 -0.045157 62.463416 -3.575047 1.468575 -70.245293 -9.463342 18.017507 112.600607 0.000000 0.000000 0.000000 -18.718924 5.496155 57.624930 6.007699 -0.419812 -71.049549 11.665222 -12.859524 95.295358 0.000000 0.000000 0.000000 -8.620179 -0.201405 -41.863966 14.742289 14.993588 -132.999633 -2.630936 13.746356 153.748948 13.461729 1.344042 -112.030516 0.000000 0.000000 0.000000 1.650315 20.621496 -18.588744 -57.316449 15.628812 -62.758706 106.880562 -1.396335 43.197006 0.000000 0.000000 0.000000 24.433792 -13.566395 -0.132318 60.590706 34.065577 -38.240537 -62.476784 -41.819851 77.521415 0.000000 0.000000 0.000000 
